<svg xmlns="http://www.w3.org/2000/svg" width="300" height="300" viewBox="0 0 300 300"><rect width="100%" height="100%" fill="#DDDDDD"/><path fill="#999999" d="M91.735 130.805v5.96h-11.77v33.08h-7.26v-33.08h-11.78v-5.96zm9.96 13.01.41 3.13q1.3-2.48 3.08-3.9 1.78-1.41 4.21-1.41 1.92 0 3.08.83l-.43 5q-.14.48-.4.69-.25.2-.68.2-.41 0-1.21-.14-.79-.13-1.55-.13-1.11 0-1.97.32-.86.33-1.55.93-.69.61-1.22 1.47-.52.87-.98 1.98v17.06h-6.67v-27.7h3.91q1.03 0 1.43.36.41.37.54 1.31m31.46-1.67h6.67v27.7h-4.08q-1.32 0-1.67-1.22l-.46-2.21q-1.7 1.73-3.75 2.8-2.06 1.06-4.84 1.06-2.27 0-4.01-.77t-2.93-2.17q-1.18-1.41-1.79-3.34t-.61-4.25v-17.6h6.67v17.6q0 2.54 1.17 3.93 1.18 1.39 3.53 1.39 1.73 0 3.24-.77t2.86-2.12zm34.86 3.43-1.76 2.43q-.3.38-.58.59-.28.22-.82.22-.52 0-1-.31-.49-.31-1.16-.71-.68-.39-1.61-.7t-2.31-.31q-1.75 0-3.08.64-1.32.63-2.2 1.82-.87 1.19-1.31 2.87-.43 1.69-.43 3.83 0 2.21.47 3.94.48 1.73 1.37 2.9t2.16 1.78 2.86.61 2.58-.39q.98-.39 1.66-.87.67-.47 1.17-.86t1.12-.39q.81 0 1.22.62l1.92 2.43q-1.11 1.3-2.41 2.17-1.29.88-2.68 1.41-1.39.52-2.87.74-1.47.21-2.92.21-2.57 0-4.84-.95-2.27-.96-3.97-2.8-1.7-1.83-2.68-4.49-.99-2.66-.99-6.06 0-3.06.88-5.66.88-2.61 2.58-4.51t4.21-2.98 5.78-1.08q3.1 0 5.44 1 2.33.99 4.2 2.86m4.42-15.85h6.67v22.98h1.25q.67 0 1.06-.18t.8-.72l6.88-8.5q.44-.57.96-.87.53-.29 1.37-.29h6.1l-8.62 10.29q-.91 1.21-1.99 1.86.56.4 1.01.94.44.54.85 1.16l9.23 13.45h-6.02q-.78 0-1.35-.26-.56-.25-.94-.93l-7.08-10.5q-.37-.62-.78-.81-.4-.19-1.21-.19h-1.52v12.69h-6.67zm59.62 35.12h7.02v5h-21.6v-5h7.91v-22.76q0-1.35.08-2.78l-5.61 4.7q-.49.38-.96.47-.47.1-.89.02t-.75-.29q-.32-.2-.48-.44l-2.11-2.89 11.91-10.13h5.48z"/></svg>